<svg id="Layer_1" data-name="Layer 1" xmlns="http://www.w3.org/2000/svg" viewBox="0 0 456.48 144.89"><defs><style>.cls-1{fill:#f7941e;}</style></defs><title>logo</title><path class="cls-1" d="M268.42,18.51H217.83q0,50.34,0,100.68h5.92c4,0,8.12,0,12.1,0,0-14.24,0-27.24,0-41.48h3l7.14,0,7.2,0c2.46,0,4.9,0,7.28,0,0-5.1,0-12.7,0-17.8-2.25,0-4.55,0-6.88,0h-7.51l-7.44,0h-2.79c0-9.16,0-14.32,0-23.48h17.91c4.88,0,9.77,0,14.71,0,0-5.12,0-12.87,0-18"/><path class="cls-1" d="M280.23,18.6c0,33.88-.12,67.76-.07,101.64,16.17.6,33.17,1.26,49.32,2.37,0-5.21,0-12.7,0-17.92-10.23-.6-20.87-1.32-31.1-1.74-.05-29,.11-55.34.07-84.35H280.23"/><path class="cls-1" d="M344.4,18.6l.21,105.12c5.93.45,12.06,1,18,1.47q0-53.25,0-106.59H344.4"/><path class="cls-1" d="M378.18,18.6c7.28,17.72,13.93,35.48,21.31,54.3-7.67,18.07-15.49,36-23.15,53.36,6.35.63,12.92,1.54,19.27,2.25,4.55-11.16,8.69-19.76,13.25-31.23,4.55,12.22,8.68,21.66,13.22,34.26,6.34.83,14.55,2,20.88,2.91-7.67-20.51-16.06-41.86-23.77-61.24,7.68-18.2,15.52-35.58,23.49-54.6H422.82c-4.92,11.76-8.31,19.32-13,30.52C405.4,37.47,402.45,29.93,398,18.6H378.18"/><path class="cls-1" d="M59.21,24q6.21,6.32,6.2,19.47l-.11,57.63q0,13.14-6.28,21.23T41,132q-11.76,1.65-18-4.68t-6.2-19.47L17,50.24Q17,37.1,23.23,29t18-9.74Q53,17.62,59.21,24ZM49.34,104.4l.11-59.82q0-10.8-8.24-9.64t-8.3,12l-.11,59.82c0,7.21,2.74,10.41,8.25,9.64s8.28-4.76,8.29-12"/><polygon class="cls-1" points="106.98 14.56 106.92 107.39 132.13 105.19 132.12 120.66 91.57 124.21 91.66 15.9 106.98 14.56"/><path class="cls-1" d="M196.79,21q6.38,6.49,6.37,19.44v54q0,12.94-6.36,19.88t-19.11,7.38l-26.1.91,0-106.71,26.09-.91Q190.42,14.47,196.79,21ZM186.08,95.72V40.24q0-5.49-2.25-7.85t-6.45-2.21l-8.7.3,0,76.21,8.7-.3a8.68,8.68,0,0,0,6.45-2.66q2.24-2.52,2.24-8"/></svg>